<svg width="30" height="31" viewBox="0 0 30 31" fill="none" xmlns="http://www.w3.org/2000/svg">
<g clip-path="url(#clip0_4_108)">
<path d="M28.5058 0.864136H1.4942C0.668975 0.864136 0 1.53311 0 2.35833V29.3699C0 30.1952 0.668975 30.8641 1.4942 30.8641H28.5058C29.331 30.8641 30 30.1952 30 29.3699V2.35833C30 1.53311 29.331 0.864136 28.5058 0.864136Z" fill="#0073E6"/>
<path d="M23.2109 18.9396C22.7855 18.7383 22.3031 18.6921 21.8472 18.809L19.0765 19.5779C19.0072 19.9877 18.7937 20.3592 18.4744 20.6252C18.1551 20.8913 17.7512 21.0344 17.3356 21.0286H14.0571C13.9609 21.0286 13.8687 20.9903 13.8007 20.9223C13.7327 20.8543 13.6944 20.7621 13.6944 20.6659C13.6756 20.6094 13.6756 20.5483 13.6944 20.4918C13.722 20.4347 13.7653 20.3866 13.8193 20.3531C13.8733 20.3197 13.9356 20.3024 13.9991 20.3032H17.2486C17.4132 20.3114 17.5771 20.277 17.7245 20.2033C17.8719 20.1296 17.9978 20.0191 18.09 19.8825L18.177 19.7665C18.1848 19.7038 18.1848 19.6405 18.177 19.5779C18.177 19.3239 18.0762 19.0804 17.8966 18.9009C17.7171 18.7213 17.4735 18.6204 17.2196 18.6204H15.3772C14.3356 17.6703 12.9717 17.1517 11.5619 17.1698H10.6045V16.0963H6.45557V23.5672H10.6045V22.6243L13.6799 23.4512C15.039 23.8174 16.4865 23.6514 17.7273 22.987C19.6859 22.0039 21.5891 20.9142 23.4285 19.7229C23.7766 19.2587 23.2109 18.9396 23.2109 18.9396ZM9.15383 22.1166H7.90624V17.5469H9.15383V22.1166Z" fill="white"/>
<path d="M18.235 19.7229C18.2368 19.7568 18.2368 19.7907 18.235 19.8245V19.7229Z" fill="white"/>
<path d="M18.235 19.7229C18.2368 19.7568 18.2368 19.7907 18.235 19.8245V19.7229Z" fill="white"/>
<path d="M16.1751 9.85834H13.4913V12.5421H16.1751V9.85834Z" fill="white"/>
<path d="M22.1808 6.37671H19.4971V9.06046H22.1808V6.37671Z" fill="white"/>
<path d="M20.8317 13.8332H18.1479V16.5169H20.8317V13.8332Z" fill="white"/>
</g>
<defs>
<clipPath id="clip0_4_108">
<rect width="30" height="30" fill="white" transform="translate(0 0.864136)"/>
</clipPath>
</defs>
</svg>
