<svg width="220" height="35" viewBox="0 0 220 35" fill="none" xmlns="http://www.w3.org/2000/svg">
<path d="M27.8 6.69995H22.6V10.3C22.6 11 22 11.5 21.4 11.5H12.6C12.4 11.5 12.2 11.7 12.2 11.9V14.7C12.2 14.9 12.4 15.1 12.6 15.1H18.5C19.2 15.1 19.7 15.7 19.7 16.3V18.7C19.7 19.4 19.1 19.9 18.5 19.9H12.6C12.4 19.9 12.2 20.1 12.2 20.3V26C12.2 26.7 11.6 27.2 11 27.2H7.30005V32C7.30005 32.7 7.90005 33.2999 8.60005 33.2999H27.8C28.5 33.2999 29.1 32.7 29.1 32V7.99995C29 7.29995 28.5 6.69995 27.8 6.69995Z" fill="#0073E6"/>
<path d="M8.60005 6.69998H22.6V1.89998C22.6 1.19998 22 0.599976 21.3 0.599976H2.10005C1.40005 0.599976 0.800049 1.19998 0.800049 1.89998V26.2C0.800049 26.9 1.40005 27.5 2.10005 27.5H7.30005V7.99998C7.30005 7.29998 7.90005 6.69998 8.60005 6.69998Z" fill="#0073E6"/>
<path d="M41.8 6.79993H54.2001C54.5001 6.79993 54.7001 6.99993 54.7001 7.29993V9.69993C54.7001 9.99993 54.5001 10.1999 54.2001 10.1999H45.5C45.2 10.1999 45 10.3999 45 10.6999V15.1999C45 15.4999 45.2 15.6999 45.5 15.6999H51.1C51.4 15.6999 51.6 15.8999 51.6 16.1999V18.5999C51.6 18.8999 51.4 19.0999 51.1 19.0999H45.5C45.2 19.0999 45 19.2999 45 19.5999V26.9999C45 27.2999 44.8 27.4999 44.5 27.4999H41.8C41.5 27.4999 41.3 27.2999 41.3 26.9999V7.29993C41.4 7.09993 41.6 6.79993 41.8 6.79993Z" fill="#191919"/>
<path d="M52.3 20.4C52.3 19.4 52.5001 18.3 52.9001 17.4C53.3001 16.5 53.8 15.7 54.5 15.1C55.2 14.5 56.0001 13.9 56.9001 13.6C58.8001 12.9 60.9 12.9 62.8 13.6C63.7 13.9 64.5 14.4 65.2 15.1C65.9 15.8 66.4001 16.5 66.8001 17.4C67.2001 18.3 67.4001 19.4 67.4001 20.4C67.4001 21.4 67.2001 22.5 66.8001 23.4C66.4001 24.2999 65.9 25.1 65.2 25.7C64.5 26.3 63.7 26.9 62.8 27.2C60.9 27.9 58.8001 27.9 56.9001 27.2C56.0001 26.9 55.2 26.4 54.5 25.7C53.8 25 53.3001 24.2999 52.9001 23.4C52.5001 22.5 52.3 21.5 52.3 20.4ZM55.8 20.4C55.8 20.9 55.9 21.5 56.1 22C56.3 22.5 56.6001 22.9 56.9001 23.2999C58.5001 24.9999 61.1 25 62.7001 23.5C62.8001 23.4 62.8001 23.4 62.9001 23.2999C63.3001 22.9 63.5001 22.5 63.7001 22C64.1 21 64.1 19.9 63.7001 18.9C63.5001 18.4 63.2001 18 62.9001 17.6C62.1001 16.8 61.0001 16.3 59.9001 16.3C58.8001 16.3 57.7001 16.7 56.9001 17.6C56.5001 18 56.3 18.4 56.1 18.9C55.9 19.4 55.8 19.9 55.8 20.4Z" fill="#191919"/>
<path d="M69 13.5H71.6C71.9 13.5 72.1 13.7 72.1 14V15.8H72.2C72.6 15 73.1 14.4 73.9 13.9C74.6 13.4 75.5 13.2 76.4 13.2C76.6 13.2 76.8 13.2 77 13.3C77.1 13.3 77.2 13.3 77.3 13.4C77.5 13.4 77.7 13.6 77.7 13.9V16.3C77.7 16.6 77.5 16.8 77.2 16.8H77.1C77 16.8 76.9 16.8 76.8 16.7C76.5 16.7 76.3 16.6 76 16.6C75.2 16.6 74.5 16.8 74 17.1C73.6 17.4 73.2 17.7 72.9 18.1C72.7 18.5 72.5 18.8 72.4 19.3C72.3 19.6 72.3 19.9 72.3 20.2V27.2C72.3 27.5 72.1 27.7 71.8 27.7H69C68.7 27.7 68.5 27.5 68.5 27.2V14.2C68.5 13.7 68.8 13.5 69 13.5Z" fill="#191919"/>
<path d="M79.1 13.5H81.5C81.8 13.5 82 13.7 82 14V15.7C82.3 15 82.9 14.4 83.5 13.9C84.2 13.4 85.1 13.1 86.3 13.1C88.2 13.1 89.5 13.7 90.3 15C90.4 15.2 90.7 15.3 90.9 15.2L91 15.1C91.4 14.6 91.9 14.1 92.5 13.8C93.3 13.4 94.2 13.2 95.2 13.2C96.1 13.2 96.9 13.4 97.6 13.7C98.2 14 98.8 14.4 99.2 15C99.6 15.6 99.9 16.2 100.1 16.9C100.3 17.7 100.4 18.5 100.4 19.2V27C100.4 27.3 100.2 27.5 99.9 27.5H97.3C97 27.5 96.8 27.3 96.8 27V19.6C96.8 19.2 96.8 18.8 96.7 18.4C96.6 18 96.5 17.7 96.3 17.4C96.1 17.1 95.8 16.9 95.5 16.7C95.1 16.5 94.7 16.4 94.2 16.4C93.7 16.4 93.2 16.5 92.8 16.7C92.4 16.9 92.1 17.2 91.9 17.5C91.7 17.9 91.5 18.2 91.4 18.7C91.3 19.1 91.2 19.6 91.2 20V27C91.2 27.3 91 27.5 90.7 27.5H88.1C87.8 27.5 87.6 27.3 87.6 27V19.1C87.6 18.2 87.4 17.5 87 17C86.6 16.5 86 16.2 85.2 16.2C84.7 16.2 84.2 16.3 83.7 16.5C83.3 16.7 83 17 82.7 17.3C82.4 17.6 82.2 18 82.1 18.4C82 18.8 81.9 19.3 81.9 19.7V27C81.9 27.3 81.7 27.5 81.4 27.5H78.8C78.5 27.5 78.3 27.3 78.3 27V14C78.6 13.7 78.8 13.5 79.1 13.5Z" fill="#191919"/>
<path d="M110.1 6.79993H112.7C112.9 6.79993 113 6.89993 113.1 7.09993L121.6 26.7999C121.7 26.9999 121.6 27.2999 121.4 27.3999C121.3 27.3999 121.3 27.3999 121.2 27.3999H118C117.8 27.3999 117.6 27.2999 117.6 27.0999L115.9 22.9999C115.8 22.7999 115.7 22.6999 115.5 22.6999H107.2C107 22.6999 106.8 22.7999 106.8 22.9999L105.2 27.0999C105.1 27.2999 105 27.3999 104.8 27.3999H101.7C101.4 27.3999 101.2 27.1999 101.2 26.8999C101.2 26.7999 101.2 26.7999 101.2 26.6999L109.7 6.99993C109.8 6.89993 109.9 6.79993 110.1 6.79993ZM114.2 18.8999L111.7 12.2999C111.6 12.0999 111.3 11.8999 111.1 11.9999C111 11.9999 110.9 12.0999 110.8 12.2999L108.3 18.8999C108.2 19.0999 108.3 19.3999 108.6 19.4999C108.7 19.4999 108.7 19.4999 108.8 19.4999H113.9C114.2 19.4999 114.4 19.2999 114.3 18.9999C114.3 18.9999 114.2 18.9999 114.2 18.8999Z" fill="#191919"/>
<path d="M130.8 17C130.6 17.2 130.3 17.2 130.2 17C129.6 16.3 128.7 15.9 127.8 15.9C127.3 15.9 126.9 16 126.4 16.2C126 16.4 125.7 16.9 125.7 17.3C125.7 17.7 125.9 18.1 126.3 18.2C126.7 18.4 127.2 18.6 127.7 18.7C128.3 18.8 128.9 19 129.5 19.1C130.1 19.2 130.7 19.5 131.3 19.8C131.9 20.1 132.3 20.5 132.7 21C133.1 21.5 133.3 22.2 133.3 23.1C133.3 23.9 133.1 24.6 132.8 25.2C132.4 25.8 132 26.2 131.4 26.6C130.8 27 130.1 27.2 129.5 27.4C128.8 27.6 128.1 27.6 127.4 27.6C126.4 27.6 125.4 27.5 124.4 27.1C123.6 26.8 122.9 26.4 122.3 25.8C122.1 25.6 122.1 25.3 122.3 25.1L123.9 23.6C124.1 23.4 124.4 23.4 124.5 23.6C124.8 23.9 125.2 24.3 125.6 24.5C126.1 24.8 126.7 25 127.5 25C127.8 25 128 25 128.3 24.9C128.6 24.8 128.8 24.7 129.1 24.6C129.3 24.5 129.5 24.3 129.7 24.1C129.8 23.9 129.9 23.6 129.9 23.4C129.9 22.9 129.7 22.6 129.3 22.3C128.9 22 128.4 21.8 127.9 21.7C127.3 21.6 126.7 21.4 126.1 21.3C125.5 21.2 124.9 21 124.3 20.7C123.7 20.4 123.3 20 122.9 19.5C122.5 19 122.3 18.3 122.3 17.4C122.3 16.7 122.4 16 122.8 15.4C123.1 14.8 123.5 14.4 124.1 14C124.6 13.6 125.3 13.3 125.9 13.2C126.6 13 127.3 12.9 128 12.9C128.9 12.9 129.9 13.1 130.8 13.4C131.5 13.7 132.2 14.1 132.7 14.7C132.9 14.9 132.8 15.2 132.7 15.3L130.8 17Z" fill="#191919"/>
<path d="M142.6 17C142.4 17.2 142.1 17.2 141.9 17C141.3 16.3 140.4 15.9 139.5 15.9C139 15.9 138.6 16 138.1 16.2C137.7 16.4 137.4 16.9 137.4 17.3C137.4 17.7 137.6 18.1 138 18.2C138.4 18.4 138.9 18.6 139.4 18.7C140 18.8 140.6 19 141.2 19.1C141.8 19.2 142.4 19.5 143 19.8C143.6 20.1 144 20.5 144.4 21C144.8 21.5 145 22.2 145 23.1C145 23.9 144.8 24.6 144.5 25.2C144.1 25.8 143.7 26.2 143.1 26.6C142.5 27 141.8 27.2 141.2 27.4C140.5 27.6 139.8 27.6 139.1 27.6C138.1 27.6 137.1 27.5 136.1 27.1C135.3 26.8 134.6 26.4 134 25.8C133.8 25.6 133.8 25.3 134 25.1L135.7 23.6C135.9 23.4 136.2 23.4 136.3 23.6C136.6 23.9 137 24.3 137.4 24.5C137.9 24.8 138.5 25 139.3 25C139.6 25 139.8 25 140.1 24.9C140.4 24.8 140.6 24.7 140.9 24.6C141.1 24.5 141.3 24.3 141.5 24.1C141.6 23.9 141.7 23.6 141.7 23.4C141.7 22.9 141.5 22.6 141.1 22.3C140.7 22 140.2 21.8 139.7 21.7C139.1 21.6 138.5 21.4 137.9 21.3C137.3 21.2 136.7 21 136.1 20.7C135.5 20.4 135.1 20 134.7 19.5C134.3 19 134.1 18.3 134.1 17.4C134.1 16.7 134.3 16 134.6 15.4C134.9 14.8 135.3 14.4 135.9 14C136.4 13.6 137.1 13.3 137.7 13.2C138.4 13 139.1 12.9 139.8 12.9C140.7 12.9 141.7 13.1 142.6 13.4C143.3 13.7 144 14.1 144.5 14.7C144.7 14.9 144.6 15.2 144.5 15.3L142.6 17Z" fill="#191919"/>
<path d="M149.7 21.7C149.4 21.7 149.2 21.9 149.2 22.2V22.3C149.4 23 149.7 23.7 150.3 24.2C151 24.8 151.8 25.1 152.8 25.1C153.7 25.1 154.4 24.9 155 24.6C155.5 24.3 155.9 24 156.3 23.6C156.5 23.4 156.7 23.4 156.9 23.6L158.7 24.9C158.9 25.1 158.9 25.3 158.8 25.6C158.1 26.4 157.3 27 156.4 27.4C155.4 27.8 154.3 28 153.2 28C152.2 28 151.2 27.8 150.2 27.5C149.3 27.2 148.5 26.7 147.8 26C147.1 25.3 146.6 24.6 146.2 23.7C145.4 21.8 145.4 19.6 146.2 17.7C146.6 16.8 147.1 16 147.8 15.4C148.5 14.7 149.3 14.2 150.2 13.9C151.1 13.5 152.2 13.4 153.2 13.4C154.1 13.4 155 13.6 155.9 13.9C156.7 14.2 157.4 14.7 158 15.4C158.6 16.1 159.1 16.9 159.3 17.8C159.6 18.8 159.8 19.9 159.8 21V21.5C159.8 21.8 159.6 22 159.3 22H149.7V21.7ZM155.8 19C156.1 19 156.3 18.8 156.3 18.5C156.3 18.5 156.3 18.5 156.3 18.4C156.2 17.7 155.9 17 155.4 16.5C154.8 15.9 153.9 15.6 152.8 15.6C151.8 15.6 150.9 15.9 150.3 16.5C149.8 17 149.4 17.6 149.3 18.3C149.2 18.5 149.4 18.8 149.6 18.9H149.7L155.8 19Z" fill="#191919"/>
<path d="M161.5 13.5H163.9C164.2 13.5 164.4 13.7 164.4 14V15.7H164.5C164.8 15 165.4 14.4 166 13.9C166.7 13.4 167.6 13.1 168.8 13.1C170.7 13.1 172 13.7 172.8 15C172.9 15.2 173.2 15.3 173.4 15.2L173.5 15.1C173.9 14.6 174.4 14.1 175 13.8C175.8 13.4 176.7 13.2 177.7 13.2C178.6 13.2 179.4 13.4 180.1 13.7C180.7 14 181.3 14.4 181.7 15C182.1 15.6 182.4 16.2 182.6 16.9C182.8 17.7 182.9 18.5 182.9 19.2V27C182.9 27.3 182.7 27.5 182.4 27.5H179.8C179.5 27.5 179.3 27.3 179.3 27V19.6C179.3 19.2 179.3 18.8 179.2 18.4C179.1 18 179 17.7 178.8 17.4C178.6 17.1 178.3 16.9 178 16.7C177.6 16.5 177.2 16.4 176.7 16.4C176.2 16.4 175.7 16.5 175.3 16.7C174.9 16.9 174.6 17.2 174.4 17.5C174.2 17.9 174 18.2 173.9 18.7C173.8 19.1 173.7 19.6 173.7 20V27C173.7 27.3 173.5 27.5 173.2 27.5H170.6C170.3 27.5 170.1 27.3 170.1 27V19.1C170.1 18.2 169.9 17.5 169.5 17C169.1 16.5 168.5 16.2 167.7 16.2C167.2 16.2 166.7 16.3 166.2 16.5C165.8 16.7 165.5 17 165.2 17.3C164.9 17.6 164.7 18 164.6 18.4C164.5 18.8 164.4 19.3 164.4 19.7V27C164.4 27.3 164.2 27.5 163.9 27.5H161.3C161 27.5 160.8 27.3 160.8 27V14C161 13.7 161.2 13.5 161.5 13.5Z" fill="#191919"/>
<path d="M184.7 6.59998H187.3C187.6 6.59998 187.8 6.79998 187.8 7.09998V15.3H187.9C188.1 15 188.3 14.8 188.6 14.6C188.9 14.3 189.2 14.1 189.6 13.9C190 13.7 190.5 13.5 190.9 13.4C191.5 13.3 192.1 13.2 192.6 13.2C193.5 13.2 194.5 13.4 195.3 13.8C196.1 14.2 196.8 14.7 197.4 15.4C198 16.1 198.5 16.9 198.8 17.7C199.1 18.6 199.3 19.6 199.3 20.6C199.3 21.6 199.2 22.5 198.8 23.5C198.5 24.4 198 25.2 197.4 25.8C196.8 26.5 196 27 195.2 27.4C194.3 27.8 193.3 28 192.3 28C191.3 28 190.4 27.8 189.5 27.4C188.6 27 187.9 26.4 187.5 25.5H187.4V27C187.4 27.3 187.2 27.5 186.9 27.5H184.5C184.2 27.5 184 27.3 184 27V7.09998C184.2 6.79998 184.4 6.59998 184.7 6.59998ZM195.8 20.4C195.8 19.9 195.7 19.3 195.5 18.8C195.3 18.3 195 17.9 194.7 17.5C194.3 17.1 193.9 16.8 193.4 16.6C192.3 16.1 191.1 16.1 190 16.6C189.5 16.8 189.1 17.1 188.7 17.5C188.3 17.9 188.1 18.3 187.9 18.8C187.5 19.8 187.5 20.9 187.9 21.9C188.1 22.4 188.4 22.8 188.7 23.2C190.3 24.9 192.9 24.9 194.5 23.4C194.6 23.3 194.6 23.3 194.7 23.2C195.1 22.8 195.3 22.4 195.5 21.9C195.7 21.5 195.8 21 195.8 20.4Z" fill="#191919"/>
<path d="M200.9 6.59998H203.5C203.8 6.59998 204 6.79998 204 7.09998V27C204 27.3 203.8 27.5 203.5 27.5H200.9C200.6 27.5 200.4 27.3 200.4 27V7.09998C200.5 6.79998 200.7 6.59998 200.9 6.59998Z" fill="#191919"/>
<path d="M205.6 13.5H208.4C208.6 13.5 208.8 13.6 208.8 13.8L212.6 23.2H212.7L216.1 13.8C216.2 13.6 216.3 13.5 216.5 13.5H219.1C219.4 13.5 219.6 13.7 219.6 14C219.6 14.1 219.6 14.1 219.6 14.2L213.2 30.5C213 31.1 212.7 31.7 212.4 32.2C212.1 32.7 211.8 33.1 211.3 33.4C210.9 33.7 210.4 34 209.9 34.2C209.3 34.4 208.6 34.5 207.9 34.4C207.1 34.4 206.4 34.3 205.6 34.2C205.4 34.1 205.2 33.9 205.3 33.7L205.6 31.5C205.6 31.2 205.9 31.1 206.1 31.1C206.1 31.1 206.1 31.1 206.2 31.1C206.4 31.2 206.7 31.2 206.9 31.3C206.9 31.3 206.9 31.3 207 31.3C207.5 31.3 208 31.3 208.5 31.2C209 31.1 209.5 30.7 209.7 30.2C209.8 29.9 210 29.6 210.1 29.3L210.7 27.8C210.7 27.7 210.7 27.6 210.7 27.4L205.1 14.1C205 13.9 205.1 13.6 205.3 13.5C205.5 13.5 205.6 13.5 205.6 13.5Z" fill="#191919"/>
</svg>
