<svg width="30" height="31" viewBox="0 0 30 31" fill="none" xmlns="http://www.w3.org/2000/svg">
<g clip-path="url(#clip0_4_38)">
<path d="M28.5058 0.432068H1.4942C0.668975 0.432068 0 1.10104 0 1.92627V28.9379C0 29.7631 0.668975 30.4321 1.4942 30.4321H28.5058C29.331 30.4321 30 29.7631 30 28.9379V1.92627C30 1.10104 29.331 0.432068 28.5058 0.432068Z" fill="#0073E6"/>
<path d="M19.6422 10.7029C19.6422 11.3137 19.5216 11.9185 19.2874 12.4827C19.0532 13.0469 18.71 13.5593 18.2774 13.9905C17.8448 14.4218 17.3313 14.7634 16.7664 14.9958C16.2016 15.2283 15.5963 15.3469 14.9855 15.345H14.3327C13.2323 15.1809 12.2275 14.6271 11.5011 13.7844C10.7748 12.9417 10.3752 11.8662 10.3752 10.7536C10.3752 9.64111 10.7748 8.56557 11.5011 7.72287C12.2275 6.88016 13.2323 6.32634 14.3327 6.16225C14.5498 6.14072 14.7684 6.14072 14.9855 6.16225C16.2018 6.15816 17.3711 6.63159 18.242 7.48073C19.1128 8.32986 19.6156 9.48686 19.6422 10.7029Z" fill="white"/>
<path d="M22.0794 23.846H7.90625C7.90624 22.9354 8.08559 22.0337 8.43406 21.1924C8.78253 20.351 9.2933 19.5866 9.9372 18.9427C11.1076 17.7848 12.6484 17.0761 14.2892 16.9408H15.1016C16.0126 16.935 16.9157 17.1099 17.7587 17.4555C18.6016 17.801 19.3677 18.3103 20.0126 18.9538C20.6574 19.5973 21.1683 20.3623 21.5156 21.2045C21.8629 22.0467 22.0397 22.9495 22.0358 23.8605L22.0794 23.846Z" fill="white"/>
</g>
<defs>
<clipPath id="clip0_4_38">
<rect width="30" height="30" fill="white" transform="translate(0 0.432068)"/>
</clipPath>
</defs>
</svg>
