<svg width="30" height="30" viewBox="0 0 30 30" fill="none" xmlns="http://www.w3.org/2000/svg">
<g clip-path="url(#clip0_4_34)">
<path d="M27.9344 0H1.46425C0.655566 0 0 0.655566 0 1.46425V27.9344C0 28.7431 0.655566 29.3987 1.46425 29.3987H27.9344C28.7431 29.3987 29.3987 28.7431 29.3987 27.9344V1.46425C29.3987 0.655566 28.7431 0 27.9344 0Z" fill="#0073E6"/>
<path d="M19.7603 15.8082C20.5585 14.8424 21.2275 13.7767 21.7505 12.638C22.5412 10.9059 22.9067 9.00994 22.8167 7.10799C19.6462 7.05321 16.5623 8.14343 14.1307 10.1786L11.7567 10.4203L9.78064 12.3679L11.8277 14.4008C11.8986 14.4699 11.9536 14.5535 11.9889 14.6459C12.0243 14.7384 12.039 14.8374 12.0323 14.9361C12.0255 15.0348 11.9974 15.1309 11.9498 15.2177C11.9022 15.3044 11.8363 15.3798 11.7567 15.4386L10.3351 16.5332L13.4057 19.6038L14.5003 18.1822C14.5657 18.1093 14.6457 18.051 14.7351 18.011C14.8245 17.9711 14.9213 17.9504 15.0192 17.9504C15.1172 17.9504 15.214 17.9711 15.3034 18.011C15.3928 18.051 15.4728 18.1093 15.5381 18.1822L17.5852 20.2436L19.547 18.2818L19.7603 15.8082ZM17.0592 12.9223C16.8321 12.6959 16.6773 12.4071 16.6145 12.0926C16.5516 11.7781 16.5834 11.452 16.7059 11.1557C16.8285 10.8593 17.0362 10.6059 17.3028 10.4276C17.5694 10.2494 17.8829 10.1542 18.2036 10.1542C18.5243 10.1542 18.8378 10.2494 19.1044 10.4276C19.371 10.6059 19.5788 10.8593 19.7013 11.1557C19.8238 11.452 19.8557 11.7781 19.7928 12.0926C19.7299 12.4071 19.5751 12.6959 19.348 12.9223C19.0424 13.2219 18.6315 13.3897 18.2036 13.3897C17.7757 13.3897 17.3648 13.2219 17.0592 12.9223Z" fill="white"/>
<path d="M11.9272 20.1441C11.9272 20.7096 11.7026 21.252 11.3027 21.6519C10.9028 22.0518 10.3604 22.2765 9.79485 22.2765H7.66245V20.1441C7.66245 19.5785 7.88711 19.0361 8.28701 18.6362C8.68692 18.2363 9.2293 18.0117 9.79485 18.0117C10.3604 18.0117 10.9028 18.2363 11.3027 18.6362C11.7026 19.0361 11.9272 19.5785 11.9272 20.1441Z" fill="white"/>
</g>
<defs>
<clipPath id="clip0_4_34">
<rect width="29.2849" height="29.3987" fill="white"/>
</clipPath>
</defs>
</svg>
